<?xml version="1.0" encoding="UTF-8"?>
<svg id="_Слой_1" data-name="Слой_1" xmlns="http://www.w3.org/2000/svg" version="1.1" viewBox="0 0 141.7 141.7">
  <!-- Generator: Adobe Illustrator 30.0.0, SVG Export Plug-In . SVG Version: 2.1.1 Build 123)  -->
  <defs>
    <style>
      .st0 {
        fill-rule: evenodd;
      }

      .st0, .st1 {
        fill: #00131d;
      }
    </style>
  </defs>
  <path class="st0" d="M70.8,37.3c.5,0,1.1.3,1.1,1l-.9,24.7c0,0,0,.2-.2.2,0,0-.2,0-.2-.2l-.9-24.7c0-.7.5-1.1,1.1-1.1M63.4,39.2l5.8,24.1c0,0,.1.1.2.1,0,0,.2,0,.1-.2l-4-24.4c-.1-.6-.6-.8-1-.8s-1.3.5-1.1,1.3M57.4,41.3l10.3,22.5c0,0,.1.1.2,0,0,0,.1-.1.1-.2l-8.7-23.2c-.2-.5-.6-.7-.9-.7-.7,0-1.4.6-1.1,1.5M51.9,44.5l14.5,20c0,0,.1,0,.2,0,0,0,.1-.1,0-.2l-13-21.1c-.2-.3-.5-.5-.8-.5-.8,0-1.5.9-.9,1.7M47.9,46.8h0c-.8,0-1.6,1.1-.8,1.8l18.2,16.8c0,0,.2,0,.2,0,0,0,0-.2,0-.2l-16.9-18.1c-.2-.2-.5-.3-.7-.3M43.2,53.8l21.1,13c0,0,.2,0,.2,0,0,0,0-.2,0-.2l-20.1-14.5c-.2-.1-.4-.2-.6-.2-.9,0-1.6,1.3-.6,2M40.4,59.5l23.2,8.6c0,0,.2,0,.2,0,0,0,0-.2,0-.2l-22.5-10.3c-.2,0-.3,0-.4,0-1,0-1.5,1.6-.4,2.1M38.7,65.6l24.4,3.9c0,0,.2,0,.2-.1,0,0,0-.2-.1-.2l-24.1-5.7c0,0-.2,0-.2,0-1.2,0-1.5,1.9-.2,2.1M38.3,72l24.7-.9c0,0,.2,0,.2-.2,0,0,0-.2-.2-.2l-24.7-.9c-1.4,0-1.4,2.2,0,2.2M63.2,72.3h0s-24.4,4-24.4,4c-1.4.3-.9,2.4.4,2.1l24.1-5.8c0,0,.1-.1.1-.2,0,0,0-.1-.2-.1M63.5,73.7l-23.2,8.7c-1.3.5-.5,2.5.8,2l22.5-10.3c0,0,.1-.1,0-.2,0,0,0-.1-.2-.1s0,0,0,0M64.2,75.1l-21.1,13c-1.2.8,0,2.6,1.2,1.8l20-14.5c0,0,0-.1,0-.2,0,0,0,0-.1,0s0,0,0,0M65.3,76.3h0s0,0-.1,0l-18.1,16.9c-1,1,.5,2.5,1.5,1.5l16.8-18.2c0,0,0-.2,0-.2,0,0,0,0-.1,0M66.5,77.3h0s0,0-.1,0l-14.5,20.1c-.8,1.2,1,2.4,1.8,1.2l13-21.1c0,0,0-.2,0-.2,0,0,0,0,0,0M67.8,78h0c0,0-.1,0-.1,0l-10.3,22.5c-.5,1.3,1.5,2.1,2,.8l8.6-23.2c0,0,0-.2,0-.2,0,0,0,0,0,0M69.3,78.4h0c0,0-.1,0-.2.1l-5.7,24.1c-.3,1.4,1.8,1.8,2.1.4l3.9-24.4c0,0,0-.2-.1-.2,0,0,0,0,0,0M70.8,78.6h0c0,0-.2,0-.2.2l-.9,24.7c0,1.4,2.2,1.4,2.2,0l-.9-24.7c0,0,0-.1-.2-.2M72.3,78.5c0,0-.2,0-.1.2l4,24.4c.3,1.4,2.4.9,2.1-.4l-5.8-24.1c0,0,0-.1-.2-.1s0,0,0,0M73.7,78c0,0-.1.1,0,.2l8.7,23.2c.5,1.3,2.5.5,2-.8l-10.3-22.5c0,0,0,0-.1,0s0,0,0,0M75.1,77.3c0,0-.1.1,0,.2l13,21.1c.8,1.2,2.6,0,1.8-1.2l-14.5-20s0,0-.1,0,0,0,0,0M76.2,76.4c0,0,0,.2,0,.2l16.9,18.1c1,1,2.5-.5,1.5-1.5l-18.2-16.8s0,0-.1,0,0,0-.1,0M77.3,75.1h0s0,0-.1,0c0,0,0,.2,0,.2l20.1,14.5c1.2.8,2.4-1,1.2-1.8l-21.1-13s0,0,0,0M77.9,73.9c0,0,0,.2,0,.2l22.5,10.3c1.3.5,2.1-1.5.8-2l-23.2-8.6s0,0,0,0c0,0-.1,0-.2.1M78.5,72.3h0c0,0-.1,0-.2.1,0,0,0,.2.1.2l24.1,5.7c1.4.3,1.8-1.8.4-2.1l-24.4-3.9s0,0,0,0M103.4,69.9l-24.7.9c0,0-.1,0-.2.2,0,0,0,.2.2.2l24.7.9c1.4,0,1.4-2.2,0-2.2h0ZM102.5,63.5l-24.1,5.8c0,0-.1.1-.1.2,0,0,0,.2.2.1l24.4-4c1.3-.3,1-2.1-.2-2.1s-.2,0-.2,0M100.5,57.5l-22.5,10.3c0,0-.1.1,0,.2,0,0,.1.1.2.1l23.2-8.7c1.1-.5.6-2.1-.4-2.1s-.3,0-.4,0M97.9,51.8h0c-.2,0-.4,0-.6.2l-20,14.5c0,0,0,.1,0,.2,0,0,.1.1.2,0l21.1-13c1-.6.3-2-.6-2M93.8,46.8h0c-.2,0-.5,0-.7.3l-16.8,18.2c0,0,0,.2,0,.2,0,0,.2,0,.2,0l18.1-16.9c.8-.8,0-1.8-.8-1.8M88.9,42.8h0c-.3,0-.6.1-.8.5l-13,21.1c0,0,0,.2,0,.2,0,0,.2,0,.2,0l14.5-20.1c.6-.8-.2-1.7-1-1.7M82.3,40.5l-8.6,23.2c0,0,0,.2,0,.2,0,0,.2,0,.2,0l10.3-22.5c.3-.8-.4-1.5-1.1-1.5-.4,0-.8.2-.9.7M76.1,38.8l-3.9,24.4c0,0,0,.2.1.2,0,0,.2,0,.2-.1l5.7-24.1c.2-.8-.5-1.3-1.1-1.3s-.9.3-1,.8"/>
  <g>
    <path class="st1" d="M31,56.9l-14.8-23.2,2.1-2.9,26.8,6.7-2.3,3.1-6.7-1.7-6.7,9.2,3.8,5.8-2.2,3ZM27.6,45.5l5.6-7.6-12.5-3.1,6.9,10.8Z"/>
    <path class="st1" d="M47.2,37.5l-11.3-23,3.1-1.5,9.9,20.1,10.3-5.1,1.4,2.8-13.4,6.6Z"/>
    <path class="st1" d="M68.1,30.5l-.5-22.5-7.3.2v-3.2c0,0,18-.4,18-.4v3.2c0,0-7.3.2-7.3.2l.5,22.5h-3.4Z"/>
    <path class="st1" d="M78.3,29.4l20.5-18.3,3.2,1.6-2.2,27.6-3.5-1.7.6-6.9-10.2-5.1-5.1,4.6-3.4-1.7ZM88.9,24.2l8.4,4.2,1.1-12.8-9.5,8.6Z"/>
    <path class="st1" d="M103.4,46.9l9.3-6.3,6.9-15.6,2.2,3.3-5.4,11.9,13-.5,2.2,3.2-17.1.6-9.3,6.2-1.9-2.9Z"/>
    <path class="st1" d="M112,66.9l25.5,2.9-1.1,9.4c-.2,1.7-.7,3.2-1.4,4.4-.7,1.2-1.7,2.1-2.9,2.6-1.2.6-2.6.8-4.1.6-1.3-.1-2.4-.6-3.3-1.2-.9-.7-1.6-1.5-2.1-2.6-.5-1.1-.8-2.3-.8-3.7l-11.9,6.7.5-4.2,11.4-6.3.4-3.9-10.6-1.2.4-3.4ZM125.1,71.8l-.6,5.3c-.2,1.8,0,3.2.7,4.3.7,1.1,1.7,1.7,3.1,1.8,1.4.2,2.6-.1,3.5-.9.9-.8,1.5-2.1,1.7-3.8l.6-5.7-9-1Z"/>
    <path class="st1" d="M108.4,87.9l21,14.7-9.2,13.2-2.5-1.8,7.2-10.3-6.3-4.4-6.3,9-2.4-1.7,6.3-9-7.3-5.1-7.3,10.4-2.5-1.8,9.3-13.3Z"/>
    <path class="st1" d="M88.9,106.6c1.5-.8,3.1-1.3,4.8-1.7,1.7-.3,3.2-.3,4.6,0l-.3,3.2c-.8-.2-1.6-.2-2.5-.2-.9,0-1.8.2-2.7.4-.9.2-1.8.6-2.6,1-1.6.8-2.8,1.8-3.4,2.9-.7,1.1-.7,2.3,0,3.5.5.9,1.2,1.5,2.1,1.8,1,.3,2.5.2,4.5-.2l2.9-.5c2.4-.5,4.3-.4,5.8,0,1.5.5,2.6,1.5,3.4,3,.5,1,.8,2,.8,3,0,1-.2,2-.6,2.9-.4,1-1.1,1.8-1.9,2.7-.8.8-1.8,1.5-3,2.1-1.5.8-2.9,1.2-4.4,1.5-1.5.2-2.8.2-4-.1l.4-3.1c.7.2,1.4.2,2.2.2.8,0,1.6-.1,2.4-.4.8-.2,1.6-.5,2.3-.9,1-.5,1.8-1.1,2.4-1.8.6-.7,1-1.4,1.1-2.2.1-.8,0-1.6-.4-2.3-.3-.6-.7-1-1.2-1.3-.5-.3-1.2-.4-2-.5-.9,0-2,.1-3.3.4l-3,.6c-2.3.4-4.2.4-5.7,0-1.5-.5-2.6-1.5-3.4-3.1-.7-1.3-1-2.7-.8-4,.1-1.3.7-2.6,1.6-3.8,1-1.2,2.3-2.2,4.1-3.2Z"/>
    <path class="st1" d="M72.8,111.4v22.5c.1,0,7.5,0,7.5,0v3.2s-18.1,0-18.1,0v-3.2s7.3,0,7.3,0v-22.5c-.1,0,3.3,0,3.3,0Z"/>
    <path class="st1" d="M62.6,112.4l-20.9,18-3.2-1.7,2.8-27.5,3.4,1.8-.7,6.9,10.1,5.3,5.2-4.5,3.3,1.8ZM51.9,117.4l-8.4-4.4-1.3,12.8,9.6-8.4Z"/>
    <path class="st1" d="M41,99.6l-21.8,13.5-5-8c-.9-1.5-1.4-2.9-1.6-4.3-.1-1.4,0-2.7.7-3.9.6-1.2,1.5-2.2,2.8-3,1.1-.7,2.2-1,3.3-1.1,1.1,0,2.2.2,3.3.8s2.1,1.3,3,2.4l5.2-12.6,2.2,3.6-5.1,12,2.1,3.3,9-5.6,1.8,2.9ZM27.6,103.8l-2.8-4.5c-.9-1.5-2-2.5-3.2-2.9-1.2-.4-2.4-.3-3.6.5-1.2.8-2,1.7-2.2,2.9-.2,1.2.1,2.5,1,4l3,4.8,7.7-4.8Z"/>
    <path class="st1" d="M30.6,75.7l-22.4,1.7.5,7.3-3.2.2-1.3-18.1,3.2-.2.5,7.3,22.4-1.7.3,3.4Z"/>
  </g>
</svg>